<svg width="109" height="25" viewBox="0 0 109 25" fill="none" xmlns="http://www.w3.org/2000/svg">
<path d="M12.5 0C9.0625 0 6.25 3.5 6.25 7.8125C6.25 12.125 9.0625 15.625 12.5 15.625C15.9375 15.625 18.75 12.125 18.75 7.8125C18.75 3.5 15.9375 0 12.5 0ZM5.96875 15.625C2.65625 15.7812 0 18.5 0 21.875V25H25V21.875C25 18.5 22.375 15.7812 19.0312 15.625C17.3438 17.5312 15.0312 18.75 12.5 18.75C9.96875 18.75 7.65625 17.5312 5.96875 15.625Z" fill="white"/>
<path d="M38.1985 21V10.0909H42.087C42.9357 10.0909 43.6388 10.2454 44.1964 10.5543C44.7539 10.8633 45.1712 11.2859 45.4482 11.8221C45.7251 12.3548 45.8636 12.9549 45.8636 13.6225C45.8636 14.2937 45.7234 14.8974 45.4428 15.4336C45.1658 15.9663 44.7468 16.3888 44.1857 16.7013C43.6282 17.0103 42.9268 17.1648 42.0817 17.1648H39.4077V15.7692H41.9325C42.4688 15.7692 42.9038 15.6768 43.2376 15.4922C43.5714 15.304 43.8164 15.0483 43.9727 14.7251C44.1289 14.402 44.207 14.0344 44.207 13.6225C44.207 13.2106 44.1289 12.8448 43.9727 12.5252C43.8164 12.2056 43.5696 11.9553 43.2322 11.7741C42.8984 11.593 42.4581 11.5025 41.9112 11.5025H39.8445V21H38.1985ZM51.0891 21.1651C50.283 21.1651 49.5888 20.9929 49.0064 20.6484C48.4276 20.3004 47.9801 19.8121 47.6641 19.1836C47.3516 18.5515 47.1953 17.8111 47.1953 16.9624C47.1953 16.1243 47.3516 15.3857 47.6641 14.7464C47.9801 14.1072 48.4205 13.6083 48.9851 13.2496C49.5533 12.891 50.2173 12.7116 50.9773 12.7116C51.4389 12.7116 51.8864 12.788 52.3196 12.9407C52.7528 13.0934 53.1417 13.3331 53.4862 13.6598C53.8306 13.9865 54.1023 14.4109 54.3011 14.9329C54.5 15.4513 54.5994 16.0817 54.5994 16.8239V17.3885H48.0955V16.1953H53.0387C53.0387 15.7763 52.9535 15.4052 52.783 15.082C52.6126 14.7553 52.3729 14.4979 52.0639 14.3097C51.7585 14.1214 51.3999 14.0273 50.9879 14.0273C50.5405 14.0273 50.1499 14.1374 49.8161 14.3576C49.4858 14.5742 49.2301 14.8583 49.049 15.2099C48.8714 15.5579 48.7827 15.9361 48.7827 16.3445V17.2766C48.7827 17.8235 48.8786 18.2887 49.0703 18.6722C49.2656 19.0558 49.5373 19.3487 49.8853 19.5511C50.2333 19.75 50.6399 19.8494 51.1051 19.8494C51.407 19.8494 51.6822 19.8068 51.9308 19.7216C52.1793 19.6328 52.3942 19.5014 52.5753 19.3274C52.7564 19.1534 52.8949 18.9386 52.9908 18.6829L54.4982 18.9545C54.3775 19.3984 54.1609 19.7873 53.8484 20.1211C53.5394 20.4513 53.1506 20.7088 52.6818 20.8935C52.2166 21.0746 51.6857 21.1651 51.0891 21.1651ZM57.9593 16.142V21H56.3666V12.8182H57.8953V14.1499H57.9965C58.1847 13.7166 58.4795 13.3686 58.8808 13.1058C59.2856 12.843 59.7952 12.7116 60.4095 12.7116C60.9671 12.7116 61.4553 12.8288 61.8744 13.0632C62.2934 13.294 62.6183 13.6385 62.8492 14.0966C63.08 14.5547 63.1954 15.1211 63.1954 15.7958V21H61.6027V15.9876C61.6027 15.3945 61.4482 14.9311 61.1393 14.5973C60.8303 14.2599 60.406 14.0913 59.8662 14.0913C59.4969 14.0913 59.1684 14.1712 58.8808 14.331C58.5967 14.4908 58.3712 14.7251 58.2043 15.0341C58.0409 15.3395 57.9593 15.7088 57.9593 16.142ZM68.7618 24.2386C68.1119 24.2386 67.5526 24.1534 67.0839 23.983C66.6187 23.8125 66.2387 23.587 65.944 23.3065C65.6492 23.0259 65.4291 22.7188 65.2835 22.3849L66.6524 21.8203C66.7483 21.9766 66.8762 22.1417 67.036 22.3157C67.1993 22.4933 67.4195 22.6442 67.6965 22.7685C67.977 22.8928 68.3374 22.9549 68.7778 22.9549C69.3815 22.9549 69.8804 22.8075 70.2746 22.5128C70.6688 22.2216 70.8659 21.7564 70.8659 21.1172V19.5085H70.7646C70.6688 19.6825 70.5303 19.8761 70.3492 20.0891C70.1716 20.3022 69.9266 20.4869 69.6141 20.6431C69.3016 20.7994 68.895 20.8775 68.3943 20.8775C67.748 20.8775 67.1656 20.7266 66.6471 20.4247C66.1322 20.1193 65.7238 19.6701 65.422 19.0771C65.1237 18.4805 64.9745 17.7472 64.9745 16.8771C64.9745 16.0071 65.1219 15.2614 65.4166 14.6399C65.7149 14.0185 66.1233 13.5426 66.6418 13.2124C67.1602 12.8786 67.748 12.7116 68.4049 12.7116C68.9127 12.7116 69.3229 12.7969 69.6354 12.9673C69.9479 13.1342 70.1911 13.3295 70.3651 13.5533C70.5427 13.777 70.6794 13.9741 70.7753 14.1445H70.8925V12.8182H72.4532V21.1811C72.4532 21.8842 72.2899 22.4613 71.9632 22.9123C71.6365 23.3633 71.1943 23.6971 70.6368 23.9137C70.0828 24.1303 69.4578 24.2386 68.7618 24.2386ZM68.7458 19.5565C69.2039 19.5565 69.591 19.4499 69.907 19.2369C70.2267 19.0202 70.4681 18.7113 70.6315 18.31C70.7984 17.9052 70.8818 17.4205 70.8818 16.8558C70.8818 16.3054 70.8002 15.8207 70.6368 15.4016C70.4735 14.9826 70.2338 14.6559 69.9177 14.4215C69.6017 14.1836 69.211 14.0646 68.7458 14.0646C68.2664 14.0646 67.8669 14.1889 67.5473 14.4375C67.2277 14.6825 66.9862 15.0163 66.8229 15.4389C66.6631 15.8615 66.5832 16.3338 66.5832 16.8558C66.5832 17.392 66.6649 17.8626 66.8282 18.2674C66.9916 18.6722 67.233 18.9883 67.5526 19.2156C67.8758 19.4428 68.2735 19.5565 68.7458 19.5565ZM78.0196 24.2386C77.3698 24.2386 76.8105 24.1534 76.3417 23.983C75.8765 23.8125 75.4965 23.587 75.2018 23.3065C74.907 23.0259 74.6869 22.7188 74.5413 22.3849L75.9102 21.8203C76.0061 21.9766 76.134 22.1417 76.2938 22.3157C76.4571 22.4933 76.6773 22.6442 76.9543 22.7685C77.2348 22.8928 77.5953 22.9549 78.0356 22.9549C78.6393 22.9549 79.1382 22.8075 79.5324 22.5128C79.9266 22.2216 80.1237 21.7564 80.1237 21.1172V19.5085H80.0225C79.9266 19.6825 79.7881 19.8761 79.607 20.0891C79.4294 20.3022 79.1844 20.4869 78.8719 20.6431C78.5594 20.7994 78.1528 20.8775 77.6521 20.8775C77.0058 20.8775 76.4234 20.7266 75.9049 20.4247C75.39 20.1193 74.9816 19.6701 74.6798 19.0771C74.3815 18.4805 74.2323 17.7472 74.2323 16.8771C74.2323 16.0071 74.3797 15.2614 74.6744 14.6399C74.9727 14.0185 75.3811 13.5426 75.8996 13.2124C76.4181 12.8786 77.0058 12.7116 77.6627 12.7116C78.1705 12.7116 78.5807 12.7969 78.8932 12.9673C79.2057 13.1342 79.449 13.3295 79.623 13.5533C79.8005 13.777 79.9372 13.9741 80.0331 14.1445H80.1503V12.8182H81.711V21.1811C81.711 21.8842 81.5477 22.4613 81.221 22.9123C80.8943 23.3633 80.4521 23.6971 79.8946 23.9137C79.3406 24.1303 78.7156 24.2386 78.0196 24.2386ZM78.0036 19.5565C78.4617 19.5565 78.8488 19.4499 79.1649 19.2369C79.4845 19.0202 79.7259 18.7113 79.8893 18.31C80.0562 17.9052 80.1396 17.4205 80.1396 16.8558C80.1396 16.3054 80.058 15.8207 79.8946 15.4016C79.7313 14.9826 79.4916 14.6559 79.1755 14.4215C78.8595 14.1836 78.4688 14.0646 78.0036 14.0646C77.5242 14.0646 77.1247 14.1889 76.8051 14.4375C76.4855 14.6825 76.2441 15.0163 76.0807 15.4389C75.9209 15.8615 75.841 16.3338 75.841 16.8558C75.841 17.392 75.9227 17.8626 76.086 18.2674C76.2494 18.6722 76.4909 18.9883 76.8105 19.2156C77.1336 19.4428 77.5313 19.5565 78.0036 19.5565ZM89.0299 17.6069V12.8182H90.6279V21H89.0619V19.5831H88.9767C88.7884 20.0199 88.4866 20.3839 88.0711 20.6751C87.6592 20.9627 87.146 21.1065 86.5317 21.1065C86.0061 21.1065 85.5409 20.9911 85.1361 20.7603C84.7348 20.5259 84.4188 20.1797 84.1879 19.7216C83.9607 19.2635 83.847 18.6971 83.847 18.0224V12.8182H85.4397V17.8306C85.4397 18.3881 85.5942 18.832 85.9031 19.1623C86.2121 19.4925 86.6134 19.6577 87.107 19.6577C87.4053 19.6577 87.7018 19.5831 87.9965 19.4339C88.2948 19.2848 88.5416 19.0593 88.7369 18.7575C88.9358 18.4556 89.0335 18.0721 89.0299 17.6069ZM94.3606 16.142V21H92.7679V12.8182H94.2967V14.1499H94.3979C94.5861 13.7166 94.8809 13.3686 95.2821 13.1058C95.687 12.843 96.1966 12.7116 96.8109 12.7116C97.3684 12.7116 97.8567 12.8288 98.2757 13.0632C98.6948 13.294 99.0197 13.6385 99.2505 14.0966C99.4814 14.5547 99.5968 15.1211 99.5968 15.7958V21H98.0041V15.9876C98.0041 15.3945 97.8496 14.9311 97.5407 14.5973C97.2317 14.2599 96.8074 14.0913 96.2676 14.0913C95.8983 14.0913 95.5698 14.1712 95.2821 14.331C94.998 14.4908 94.7725 14.7251 94.6056 15.0341C94.4423 15.3395 94.3606 15.7088 94.3606 16.142ZM104.114 21.1811C103.595 21.1811 103.127 21.0852 102.708 20.8935C102.289 20.6982 101.956 20.4158 101.711 20.0465C101.47 19.6772 101.349 19.2244 101.349 18.6882C101.349 18.2266 101.438 17.8466 101.616 17.5483C101.793 17.25 102.033 17.0138 102.335 16.8398C102.637 16.6658 102.974 16.5344 103.347 16.4457C103.72 16.3569 104.1 16.2894 104.487 16.2433C104.977 16.1864 105.374 16.1403 105.68 16.1048C105.985 16.0657 106.207 16.0036 106.346 15.9183C106.484 15.8331 106.553 15.6946 106.553 15.5028V15.4656C106.553 15.0004 106.422 14.6399 106.159 14.3842C105.9 14.1286 105.513 14.0007 104.998 14.0007C104.462 14.0007 104.039 14.1197 103.73 14.3576C103.425 14.592 103.214 14.853 103.096 15.1406L101.6 14.7997C101.777 14.3026 102.036 13.9013 102.377 13.5959C102.722 13.2869 103.118 13.0632 103.565 12.9247C104.013 12.7827 104.483 12.7116 104.977 12.7116C105.303 12.7116 105.65 12.7507 106.015 12.8288C106.385 12.9034 106.729 13.0419 107.049 13.2443C107.372 13.4467 107.637 13.7362 107.843 14.1126C108.048 14.4854 108.151 14.9702 108.151 15.5668V21H106.596V19.8814H106.532C106.429 20.0874 106.275 20.2898 106.069 20.4886C105.863 20.6875 105.598 20.8526 105.275 20.984C104.952 21.1154 104.565 21.1811 104.114 21.1811ZM104.46 19.9027C104.9 19.9027 105.277 19.8157 105.589 19.6417C105.905 19.4677 106.145 19.2404 106.308 18.9599C106.475 18.6758 106.559 18.3722 106.559 18.049V16.9943C106.502 17.0511 106.392 17.1044 106.229 17.1541C106.069 17.2003 105.886 17.2411 105.68 17.2766C105.474 17.3086 105.273 17.3388 105.078 17.3672C104.883 17.392 104.719 17.4134 104.588 17.4311C104.279 17.4702 103.997 17.5359 103.741 17.6282C103.489 17.7205 103.286 17.8537 103.134 18.0277C102.985 18.1982 102.91 18.4254 102.91 18.7095C102.91 19.1037 103.056 19.402 103.347 19.6044C103.638 19.8033 104.009 19.9027 104.46 19.9027Z" fill="white"/>
</svg>
